<?xml version="1.0" encoding="UTF-8" standalone="no"?>
<svg
   xmlns:dc="http://purl.org/dc/elements/1.1/"
   xmlns:cc="http://creativecommons.org/ns#"
   xmlns:rdf="http://www.w3.org/1999/02/22-rdf-syntax-ns#"
   xmlns:svg="http://www.w3.org/2000/svg"
   xmlns="http://www.w3.org/2000/svg"
   height="20.045183"
   width="220.37431"
   id="svg4"
   viewBox="0 0 220.37431 20.045183"
   version="1.1">
  <metadata
     id="metadata10">
    <rdf:RDF>
      <cc:Work
         rdf:about="">
        <dc:format>image/svg+xml</dc:format>
        <dc:type
           rdf:resource="http://purl.org/dc/dcmitype/StillImage" />
        <dc:title></dc:title>
      </cc:Work>
    </rdf:RDF>
  </metadata>
  <defs
     id="defs8" />
  <path
     style="fill:#ffca28"
     id="path2"
     d="m 46.333522,1.0225919 h 18 V 19.022591 h -18 V 1.0225919 m 4.73,15.0399991 c 0.4,0.85 1.19,1.55 2.54,1.55 1.5,0 2.53,-0.8 2.53,-2.55 V 9.2825912 h -1.7 v 5.7399998 c 0,0.86 -0.35,1.08 -0.9,1.08 -0.58,0 -0.82,-0.4 -1.09,-0.87 l -1.38,0.83 m 5.98,-0.18 c 0.5,0.98 1.51,1.73 3.09,1.73 1.6,0 2.8,-0.83 2.8,-2.36 0,-1.41 -0.81,-2.04 -2.25,-2.66 l -0.42,-0.18 c -0.73,-0.31 -1.04,-0.52 -1.04,-1.02 0,-0.41 0.31,-0.73 0.81,-0.73 0.48,0 0.8,0.21 1.09,0.73 l 1.31,-0.87 c -0.55,-0.9599998 -1.33,-1.3299998 -2.4,-1.3299998 -1.51,0 -2.48,0.9599998 -2.48,2.2299998 0,1.38 0.81,2.03 2.03,2.55 l 0.42,0.18 c 0.78,0.34 1.24,0.55 1.24,1.13 0,0.48 -0.45,0.83 -1.15,0.83 -0.83,0 -1.31,-0.43 -1.67,-1.03 z" />
  <path
     id="path2-9"
     d="m 7.93,15.582591 4.07,-1.13 0.55,-6.0999998 H 5.31 l -0.18,-2.03 h 7.6 l 0.2,-1.989999 h -10 l 0.56,6.0099988 h 6.89 l -0.23,2.58 -2.22,0.6 -2.22,-0.6 -0.14,-1.66 h -2 l 0.29,3.19 4.07,1.13 M 0,1.0225919 h 15.86 l -1.43,16.1999991 -6.5,1.8 -6.5,-1.8 z"
     style="fill:#e44d26" />
  <path
     id="path2-4"
     d="m 24.096761,1.0225919 -0.65,3.3400003 h 13.59 l -0.44,2.159999 h -13.58 l -0.66,3.33 h 13.59 l -0.76,3.8099998 -5.48,1.81 -4.75,-1.81 0.33,-1.64 h -3.34 l -0.79,4 7.85,3 9.05,-3 1.2,-6.0299998 0.24,-1.21 1.54,-7.7599993 z"
     style="fill:#42a5f5" />
  <path
     id="path2-8"
     d="m 74.857483,12.560091 3.0197,-8.0312998 3.007,8.0312998 m -4.2757,-11.4189991 -6.9782,17.7629991 h 2.8547 l 1.421,-3.8063 h 7.9298 l 1.4337,3.8063 H 86.12418 L 79.145983,1.1410919 Z"
     style="fill:#f44336;stroke-width:1.26880002" />
  <path
     id="path2-2"
     d="m 100.91321,15.380373 c -0.14136,-0.84814 -0.56543,-1.5549 -1.4136,-1.8376 -0.28271,-0.14136 -0.70679,-0.42407 -0.9895,-0.56543 -0.42407,-0.14136 -0.84814,-0.28271 -1.1309,-0.42407 -0.28276,-0.14136 -0.56543,0 -0.84814,0.28271 -0.14136,0.28271 0,0.56543 0.14136,0.70678 0.14136,0.28272 0.28271,0.42407 0.56543,0.70679 0.28271,0.42407 0.56543,0.70679 0.9895,1.1309 0.28271,0.42407 0.56543,0.70679 0.42407,1.2722 -0.14136,0.9895 -0.56543,1.979 -1.2722,2.6858 -0.14136,0.14136 -0.28271,0.14136 -0.28271,0.14136 -0.42407,0 -0.9895,-0.28271 -1.2722,-0.56543 -0.42407,-0.42407 -0.28271,-0.84814 0.14136,-1.1309 0.14136,0 0.28271,-0.14136 0.28271,-0.28271 0.28271,-0.28271 0.42407,-0.56543 0.28271,-0.9895 -0.14136,-0.14136 -0.14136,-0.28271 -0.28271,-0.42407 -0.56543,-0.56543 -1.2722,-1.1309 -1.979,-1.6963 -1.8376,-1.4136 -2.6858,-3.1099 -2.8271,-5.0888998 -0.14136,-2.2617 0.42407,-4.3821 1.5549,-6.3610995 0.42407,-0.70679 0.9895,-1.4136 1.8376,-1.8376 0.56543,-0.28270999 1.1309,-0.42406999 1.6963,-0.56542999 1.5549,-0.42407 3.2512,-0.70679 4.9475,-0.42407 1.4136,0.28271 2.5444,0.98949999 2.9685,2.40309999 0.28272,0.9895 0.42407,1.8375995 0.28272,2.8270995 -0.14136,1.979 -1.6963,3.6753 -3.5339,4.2407 -0.84814,0.28271 -1.2722,0.14136 -1.6963,-0.56543 -0.28271,-0.42407 -0.70679,-0.9895 -0.9895,-1.5549 v -0.14136 c 0,-0.14136 -0.14136,-0.14136 -0.14136,-0.28272 0.14136,0.84814 0.28271,1.6963 0.70679,2.4031 0.28271,0.42407 0.56543,0.7067798 1.1309,0.7067798 1.8376,0.14136 3.2512,-0.4240698 4.3821,-1.8375998 1.1309,-1.5549 1.4136,-3.3926 1.1309,-5.3715995 0,-0.42407 -0.14136,-0.70679 -0.28272,-1.1309 0,-0.28271 0,-0.42407 0.28272,-0.56543 0.14136,0 0.28271,0 0.28271,-0.14136 1.4136,-0.28270999 2.9685,-0.42406999 4.3821,-0.28270999 1.6963,0.14136 3.2512,0.56542999 4.6648,1.55489999 2.2617,1.4136 3.6753,3.5338995 4.3821,6.0783995 0.14136,0.42407 0.14136,0.70679 0.14136,1.1309 0,0.28271 -0.14136,0.28271 -0.42407,0.14136 -0.28271,-0.14136 -0.42407,-0.42407 -0.56543,-0.56543 -0.14136,-0.14136 -0.28271,-0.42407 -0.42407,-0.56543 -0.14136,-0.14136 -0.28272,-0.14136 -0.28272,0 0,0.14136 -0.14136,0.28271 -0.14136,0.42407 -0.42407,1.4135998 -0.9895,2.6857998 -1.979,3.6752998 -0.14136,0.14136 -0.28272,0.42407 -0.28272,0.56543 0,0.56543 -0.14136,1.1309 0,1.6963 0.14136,1.1309 0.28272,2.4031 0.42407,3.5339 0.14136,0.70678 -0.14136,0.9895 -0.70678,1.2722 -0.42407,0.14136 -0.84814,0.28271 -1.4136,0.28271 h -2.2617 c 0,-0.84814 0,-1.6963 -0.70679,-2.1204 0.14136,-0.56543 0.28271,-1.1309 0.42407,-1.8376 0.14136,-0.56543 0,-0.9895 -0.28271,-1.4136 -0.28272,-0.42407 -0.70679,-0.42407 -1.1309,-0.28271 -1.1309,0.70679 -2.2617,0.70679 -3.5339,0.28271 -0.56543,-0.14136 -0.9895,-0.14136 -1.2722,0.42407 -0.28271,0.56543 -0.42407,1.1309 -0.42407,1.6963 0,0.70679 0.14136,1.5549 0.28271,2.2617 0,0.42407 0,0.56543 -0.42407,0.70679 -0.9895,0.28271 -1.979,0.28271 -2.8271,0.14136 h -0.14136 c 0,-0.84814 0,-1.6963 -0.9895,-2.1204 0.56543,-0.56543 0.56543,-1.5549 0.42407,-2.4031 z m -5.7956,-3.2512 c 0.14136,-0.14136 0.28271,-0.28271 0.28271,-0.56543 0.14136,-0.42407 -0.28271,-1.1309 -0.70679,-1.2722 -0.28271,-0.14136 -0.42407,0 -0.56543,0.14136 -0.42407,0.42407 -0.70679,0.84814 -1.1309,1.2722 0,0.14136 -0.14136,0.14136 -0.14136,0.28271 -0.14136,0.28271 0,0.56543 0.28271,0.56543 0.14136,0 0.42407,0 0.56543,0.14136 0.56543,0 0.9895,-0.14136 1.4136,-0.56543 z m 0,-4.6647998 c 0,-0.28271 -0.28271,-0.56543 -0.56543,-0.56543 -0.28271,0 -0.70679,0.28271 -0.56543,0.70679 0,0.28271 0.28271,0.56543 0.70679,0.56543 0.14136,-0.14136 0.42407,-0.42407 0.42407,-0.70679 z"
     style="fill:#0288d1;stroke-width:1.41359997" />
  <path
     id="path2-6"
     d="m 133.65246,7.0949912 h 5.3677 l -5.3677,-5.3676993 v 5.3676993 m -6.8316,-6.83159929 h 7.8075 l 5.8557,5.85569929 V 17.830091 a 1.9519,1.9519 0 0 1 -1.9519,1.9519 h -11.711 c -1.0833,0 -1.9519,-0.87835 -1.9519,-1.9519 V 2.2150919 c 0,-1.0833 0.86859,-1.95189999 1.9519,-1.95189999 m 0,17.56699909 h 11.711 v -7.8075 l -3.9038,3.9038 -1.9519,-1.9519 -5.8557,5.8557 m 1.9519,-10.7349998 a 1.9519,1.9519 0 0 0 -1.9519,1.9519 1.9519,1.9519 0 0 0 1.9519,1.9518998 1.9519,1.9519 0 0 0 1.9519,-1.9518998 1.9519,1.9519 0 0 0 -1.9519,-1.9519 z"
     style="fill:#26a69a;stroke-width:0.97593999" />
  <path
     id="path2-1"
     d="m 161.78082,2.0225919 2,3.9999993 h -3 l -2,-3.9999993 h -2 l 2,3.9999993 h -3 l -2,-3.9999993 h -2 l 2,3.9999993 h -3 l -2,-3.9999993 h -1 a 2,2 0 0 0 -2,1.9999995 V 16.022591 a 2,2 0 0 0 2,2 h 16 a 2,2 0 0 0 2,-2 V 2.0225919 Z"
     style="fill:#ff9800" />
  <path
     id="path2-19"
     d="m 185.07757,7.0225912 v -2 h -4 v 5.4999998 c -0.42,-0.31 -0.93,-0.5 -1.5,-0.5 a 2.5,2.5 0 0 0 -2.5,2.5 2.5,2.5 0 0 0 2.5,2.5 2.5,2.5 0 0 0 2.5,-2.5 V 7.0225912 h 3 m -4,-6.99999929 a 10,10 0 0 1 10,9.99999909 10,10 0 0 1 -10,10 10,10 0 0 1 -10,-10 10,10 0 0 1 10,-9.99999909 z"
     style="fill:#ef5350" />
  <path
     id="path2-13"
     style="fill:#fbc02d"
     d="m 201.37432,1.0225918 h 2 v 2 h -2 v 5.0000004 a 2,2 0 0 1 -2,1.9999998 2,2 0 0 1 2,1.999999 v 5 h 2 v 2 h -2 c -1.07,-0.27 -2,-0.9 -2,-2 v -4 a 2,2 0 0 0 -2,-2 h -1 V 9.0225922 h 1 a 2,2 0 0 0 2,-2 V 3.0225918 a 2,2 0 0 1 2,-2 m 14,0 a 2,2 0 0 1 2,2 v 4.0000004 a 2,2 0 0 0 2,2 h 1 v 1.9999988 h -1 a 2,2 0 0 0 -2,2 v 4 a 2,2 0 0 1 -2,2 h -2 v -2 h 2 v -5 a 2,2 0 0 1 2,-1.999999 2,2 0 0 1 -2,-1.9999998 V 3.0225918 h -2 v -2 h 2 m -7,11.9999992 a 1,1 0 0 1 1,1 1,1 0 0 1 -1,1 1,1 0 0 1 -1,-1 1,1 0 0 1 1,-1 m -4,0 a 1,1 0 0 1 1,1 1,1 0 0 1 -1,1 1,1 0 0 1 -1,-1 1,1 0 0 1 1,-1 m 8,0 a 1,1 0 0 1 1,1 1,1 0 0 1 -1,1 1,1 0 0 1 -1,-1 1,1 0 0 1 1,-1 z" />
</svg>
